<svg xmlns="http://www.w3.org/2000/svg" xmlns:xlink="http://www.w3.org/1999/xlink" width="500" zoomAndPan="magnify" viewBox="0 0 375 374.999991" height="500" preserveAspectRatio="xMidYMid meet" version="1.0"><defs><clipPath id="98909a5ee5"><path d="M 73 80.046875 L 184 80.046875 L 184 295 L 73 295 Z M 73 80.046875 " clip-rule="nonzero"/></clipPath><clipPath id="7f776aa297"><path d="M 191 80.046875 L 302 80.046875 L 302 295 L 191 295 Z M 191 80.046875 " clip-rule="nonzero"/></clipPath><clipPath id="3ebdbb71ee"><path d="M 37.5 120 L 157 120 L 157 294 L 37.5 294 Z M 37.5 120 " clip-rule="nonzero"/></clipPath><clipPath id="57dadd0957"><path d="M 218 120 L 337.5 120 L 337.5 294 L 218 294 Z M 218 120 " clip-rule="nonzero"/></clipPath></defs><g clip-path="url(#98909a5ee5)"><path fill="#ffffff" d="M 76.171875 258.097656 C 85.082031 258.632812 101.667969 260.308594 120.5 265.5 C 139.335938 270.6875 160.398438 279.390625 178.347656 293.847656 C 179.347656 294.65625 180.71875 294.816406 181.882812 294.257812 C 183.042969 293.703125 183.777344 292.535156 183.777344 291.25 L 183.777344 116.617188 C 183.777344 115.570312 183.285156 114.582031 182.449219 113.953125 C 177.601562 110.296875 165.972656 102.332031 148.121094 95.039062 C 130.265625 87.75 106.179688 81.132812 76.480469 80.203125 C 75.574219 80.175781 74.699219 80.511719 74.050781 81.144531 C 73.402344 81.773438 73.035156 82.636719 73.035156 83.539062 L 73.035156 254.765625 C 73.035156 256.527344 74.414062 257.992188 76.175781 258.097656 Z M 177.101562 118.300781 L 177.101562 284.527344 C 159.496094 271.773438 139.882812 263.917969 122.273438 259.066406 C 104.855469 254.265625 89.390625 252.390625 79.710938 251.648438 L 79.710938 87.027344 C 106.941406 88.3125 129.070312 94.472656 145.59375 101.21875 C 161.308594 107.636719 171.960938 114.574219 177.101562 118.300781 Z M 177.101562 118.300781 " fill-opacity="1" fill-rule="nonzero"/></g><g clip-path="url(#7f776aa297)"><path fill="#ffffff" d="M 193.117188 294.25 C 194.28125 294.808594 195.648438 294.648438 196.652344 293.839844 C 214.601562 279.382812 235.660156 270.679688 254.5 265.496094 C 273.332031 260.308594 289.914062 258.632812 298.828125 258.097656 C 300.585938 257.992188 301.964844 256.53125 301.964844 254.765625 L 301.964844 83.539062 C 301.964844 82.636719 301.597656 81.773438 300.949219 81.144531 C 300.300781 80.515625 299.425781 80.175781 298.523438 80.203125 C 268.695312 81.128906 244.59375 87.738281 226.761719 95.027344 C 208.929688 102.316406 197.363281 110.28125 192.542969 113.945312 C 191.707031 114.578125 191.222656 115.554688 191.222656 116.601562 L 191.222656 291.242188 C 191.222656 292.527344 191.957031 293.695312 193.117188 294.25 Z M 229.289062 101.207031 C 245.789062 94.460938 267.933594 88.304688 295.289062 87.023438 L 295.289062 251.648438 C 285.609375 252.386719 270.144531 254.265625 252.726562 259.058594 C 235.117188 263.914062 215.503906 271.765625 197.898438 284.515625 L 197.898438 118.28125 C 203.007812 114.554688 213.601562 107.617188 229.289062 101.207031 Z M 229.289062 101.207031 " fill-opacity="1" fill-rule="nonzero"/></g><g clip-path="url(#3ebdbb71ee)"><path fill="#ffffff" d="M 152.015625 293.160156 C 153.644531 293.539062 155.296875 292.65625 155.890625 291.089844 C 156.480469 289.527344 155.828125 287.769531 154.355469 286.976562 C 134.566406 276.269531 113.511719 270.882812 97.304688 268.132812 C 89.199219 266.761719 82.308594 266.050781 77.390625 265.683594 C 74.933594 265.5 72.96875 265.402344 71.59375 265.351562 C 70.90625 265.324219 70.367188 265.308594 69.984375 265.300781 C 69.792969 265.296875 69.644531 265.296875 69.535156 265.292969 C 69.417969 265.292969 69.363281 265.292969 69.3125 265.292969 L 65.589844 265.292969 L 65.589844 124.613281 C 65.589844 122.882812 64.265625 121.4375 62.542969 121.289062 C 59.929688 121.0625 57.136719 120.972656 54.332031 120.972656 C 49.464844 120.972656 44.554688 121.242188 40.566406 121.5625 C 38.828125 121.703125 37.496094 123.148438 37.496094 124.890625 L 37.496094 282.375 C 37.496094 283.328125 37.902344 284.234375 38.613281 284.867188 C 39.328125 285.5 40.273438 285.800781 41.222656 285.6875 C 52.238281 284.398438 63.117188 283.84375 73.667969 283.84375 C 103.878906 283.84375 131.425781 288.390625 152.011719 293.160156 Z M 58.914062 127.75 L 58.914062 268.628906 C 58.914062 269.507812 59.269531 270.367188 59.890625 270.988281 C 60.515625 271.613281 61.375 271.96875 62.253906 271.96875 L 69.316406 271.96875 C 69.535156 271.96875 72.441406 272 77.230469 272.367188 C 84.421875 272.917969 95.894531 274.222656 109.074219 277.308594 C 113.140625 278.257812 117.367188 279.378906 121.683594 280.695312 C 107.035156 278.597656 90.792969 277.171875 73.667969 277.167969 C 64.070312 277.167969 54.195312 277.621094 44.171875 278.652344 L 44.171875 127.996094 C 47.34375 127.792969 50.875 127.648438 54.332031 127.648438 C 55.890625 127.648438 57.429688 127.683594 58.914062 127.75 Z M 58.914062 127.75 " fill-opacity="1" fill-rule="nonzero"/></g><g clip-path="url(#57dadd0957)"><path fill="#ffffff" d="M 334.433594 121.5625 C 330.445312 121.242188 325.53125 120.972656 320.660156 120.972656 C 317.859375 120.972656 315.070312 121.0625 312.457031 121.289062 C 310.734375 121.4375 309.410156 122.878906 309.410156 124.613281 L 309.410156 265.285156 L 305.691406 265.292969 L 305.695312 265.292969 C 305.644531 265.292969 305.585938 265.292969 305.472656 265.292969 C 303.765625 265.316406 292.117188 265.585938 276.105469 268.414062 C 260.09375 271.246094 239.714844 276.625 220.554688 286.992188 C 219.082031 287.785156 218.429688 289.546875 219.019531 291.109375 C 219.613281 292.671875 221.269531 293.554688 222.898438 293.179688 C 243.484375 288.402344 271.058594 283.84375 301.316406 283.84375 C 311.871094 283.84375 322.753906 284.398438 333.777344 285.6875 C 334.726562 285.796875 335.671875 285.5 336.386719 284.867188 C 337.097656 284.230469 337.503906 283.328125 337.503906 282.371094 L 337.503906 124.890625 C 337.503906 123.148438 336.171875 121.703125 334.433594 121.5625 Z M 253.34375 280.6875 C 262.433594 277.921875 271.144531 276.019531 278.757812 274.730469 C 286.632812 273.394531 293.335938 272.703125 298.089844 272.347656 C 300.46875 272.167969 302.359375 272.074219 303.660156 272.023438 C 304.3125 271.996094 304.820312 271.984375 305.164062 271.976562 C 305.339844 271.972656 305.472656 271.96875 305.5625 271.96875 L 305.699219 271.96875 L 312.75 271.957031 C 314.59375 271.957031 316.085938 270.464844 316.085938 268.621094 L 316.085938 127.746094 C 317.566406 127.683594 319.101562 127.648438 320.660156 127.648438 C 324.121094 127.648438 327.65625 127.792969 330.828125 127.996094 L 330.828125 278.652344 C 320.800781 277.621094 310.917969 277.171875 301.316406 277.171875 C 284.203125 277.171875 267.976562 278.59375 253.34375 280.6875 Z M 253.34375 280.6875 " fill-opacity="1" fill-rule="nonzero"/></g></svg>